<?xml version="1.0" encoding="utf-8" ?>
<svg baseProfile="tiny" height="100%" version="1.2" width="100%" xmlns="http://www.w3.org/2000/svg" xmlns:ev="http://www.w3.org/2001/xml-events" xmlns:xlink="http://www.w3.org/1999/xlink"><defs /><rect fill="rgb(255,225,25)" height="100" width="100" x="0" y="0" /><rect fill="rgb(60,180,75)" height="100" width="100" x="100" y="0" /><rect fill="rgb(60,180,75)" height="100" width="100" x="200" y="0" /><rect fill="rgb(60,180,75)" height="100" width="100" x="300" y="0" /><rect fill="rgb(255,225,25)" height="100" width="100" x="0" y="100" /><rect fill="rgb(255,225,25)" height="100" width="100" x="100" y="100" /><rect fill="rgb(60,180,75)" height="100" width="100" x="200" y="100" /><rect fill="rgb(0,130,200)" height="100" width="100" x="300" y="100" /><rect fill="rgb(255,225,25)" height="100" width="100" x="0" y="200" /><rect fill="rgb(70,240,240)" height="100" width="100" x="100" y="200" /><rect fill="rgb(0,130,200)" height="100" width="100" x="200" y="200" /><rect fill="rgb(0,130,200)" height="100" width="100" x="300" y="200" /><rect fill="rgb(70,240,240)" height="100" width="100" x="0" y="300" /><rect fill="rgb(70,240,240)" height="100" width="100" x="100" y="300" /><rect fill="rgb(70,240,240)" height="100" width="100" x="200" y="300" /><rect fill="rgb(0,130,200)" height="100" width="100" x="300" y="300" /></svg>