<?xml version="1.0" encoding="utf-8" ?>
<svg baseProfile="tiny" height="100%" version="1.2" width="100%" xmlns="http://www.w3.org/2000/svg" xmlns:ev="http://www.w3.org/2001/xml-events" xmlns:xlink="http://www.w3.org/1999/xlink"><defs /><rect fill="rgb(255,225,25)" height="100" width="100" x="0" y="0" /><rect fill="rgb(255,225,25)" height="100" width="100" x="100" y="0" /><rect fill="rgb(0,0,128)" height="100" width="100" x="200" y="0" /><rect fill="rgb(0,0,128)" height="100" width="100" x="300" y="0" /><rect fill="rgb(0,0,128)" height="100" width="100" x="400" y="0" /><rect fill="rgb(250,190,190)" height="100" width="100" x="500" y="0" /><rect fill="rgb(250,190,190)" height="100" width="100" x="600" y="0" /><rect fill="rgb(250,190,190)" height="100" width="100" x="700" y="0" /><rect fill="rgb(250,190,190)" height="100" width="100" x="800" y="0" /><rect fill="rgb(245,130,48)" height="100" width="100" x="900" y="0" /><rect fill="rgb(245,130,48)" height="100" width="100" x="1000" y="0" /><rect fill="rgb(245,130,48)" height="100" width="100" x="1100" y="0" /><rect fill="rgb(70,240,240)" height="100" width="100" x="1200" y="0" /><rect fill="rgb(70,240,240)" height="100" width="100" x="1300" y="0" /><rect fill="rgb(70,240,240)" height="100" width="100" x="1400" y="0" /><rect fill="rgb(70,240,240)" height="100" width="100" x="1500" y="0" /><rect fill="rgb(0,130,200)" height="100" width="100" x="1600" y="0" /><rect fill="rgb(0,130,200)" height="100" width="100" x="1700" y="0" /><rect fill="rgb(0,130,200)" height="100" width="100" x="1800" y="0" /><rect fill="rgb(0,130,200)" height="100" width="100" x="1900" y="0" /><rect fill="rgb(60,180,75)" height="100" width="100" x="0" y="100" /><rect fill="rgb(255,225,25)" height="100" width="100" x="100" y="100" /><rect fill="rgb(255,225,25)" height="100" width="100" x="200" y="100" /><rect fill="rgb(255,215,180)" height="100" width="100" x="300" y="100" /><rect fill="rgb(0,0,128)" height="100" width="100" x="400" y="100" /><rect fill="rgb(230,190,255)" height="100" width="100" x="500" y="100" /><rect fill="rgb(230,190,255)" height="100" width="100" x="600" y="100" /><rect fill="rgb(230,190,255)" height="100" width="100" x="700" y="100" /><rect fill="rgb(230,190,255)" height="100" width="100" x="800" y="100" /><rect fill="rgb(245,130,48)" height="100" width="100" x="900" y="100" /><rect fill="rgb(145,30,180)" height="100" width="100" x="1000" y="100" /><rect fill="rgb(145,30,180)" height="100" width="100" x="1100" y="100" /><rect fill="white" height="100" width="100" x="1200" y="100" /><rect fill="white" height="100" width="100" x="1300" y="100" /><rect fill="white" height="100" width="100" x="1400" y="100" /><rect fill="white" height="100" width="100" x="1500" y="100" /><rect fill="white" height="100" width="100" x="1600" y="100" /><rect fill="white" height="100" width="100" x="1700" y="100" /><rect fill="white" height="100" width="100" x="1800" y="100" /><rect fill="white" height="100" width="100" x="1900" y="100" /><rect fill="rgb(60,180,75)" height="100" width="100" x="0" y="200" /><rect fill="rgb(60,180,75)" height="100" width="100" x="100" y="200" /><rect fill="rgb(60,180,75)" height="100" width="100" x="200" y="200" /><rect fill="rgb(255,215,180)" height="100" width="100" x="300" y="200" /><rect fill="rgb(255,215,180)" height="100" width="100" x="400" y="200" /><rect fill="rgb(255,215,180)" height="100" width="100" x="500" y="200" /><rect fill="rgb(210,245,60)" height="100" width="100" x="600" y="200" /><rect fill="rgb(210,245,60)" height="100" width="100" x="700" y="200" /><rect fill="rgb(210,245,60)" height="100" width="100" x="800" y="200" /><rect fill="rgb(210,245,60)" height="100" width="100" x="900" y="200" /><rect fill="rgb(240,50,230)" height="100" width="100" x="1000" y="200" /><rect fill="rgb(145,30,180)" height="100" width="100" x="1100" y="200" /><rect fill="white" height="100" width="100" x="1200" y="200" /><rect fill="white" height="100" width="100" x="1300" y="200" /><rect fill="white" height="100" width="100" x="1400" y="200" /><rect fill="white" height="100" width="100" x="1500" y="200" /><rect fill="white" height="100" width="100" x="1600" y="200" /><rect fill="white" height="100" width="100" x="1700" y="200" /><rect fill="white" height="100" width="100" x="1800" y="200" /><rect fill="white" height="100" width="100" x="1900" y="200" /><rect fill="rgb(128,128,128)" height="100" width="100" x="0" y="300" /><rect fill="rgb(128,128,128)" height="100" width="100" x="100" y="300" /><rect fill="rgb(128,128,0)" height="100" width="100" x="200" y="300" /><rect fill="rgb(128,128,0)" height="100" width="100" x="300" y="300" /><rect fill="rgb(128,128,0)" height="100" width="100" x="400" y="300" /><rect fill="rgb(128,128,0)" height="100" width="100" x="500" y="300" /><rect fill="rgb(250,190,190)" height="100" width="100" x="600" y="300" /><rect fill="rgb(250,190,190)" height="100" width="100" x="700" y="300" /><rect fill="rgb(240,50,230)" height="100" width="100" x="800" y="300" /><rect fill="rgb(240,50,230)" height="100" width="100" x="900" y="300" /><rect fill="rgb(240,50,230)" height="100" width="100" x="1000" y="300" /><rect fill="rgb(145,30,180)" height="100" width="100" x="1100" y="300" /><rect fill="white" height="100" width="100" x="1200" y="300" /><rect fill="white" height="100" width="100" x="1300" y="300" /><rect fill="white" height="100" width="100" x="1400" y="300" /><rect fill="white" height="100" width="100" x="1500" y="300" /><rect fill="white" height="100" width="100" x="1600" y="300" /><rect fill="white" height="100" width="100" x="1700" y="300" /><rect fill="white" height="100" width="100" x="1800" y="300" /><rect fill="white" height="100" width="100" x="1900" y="300" /><rect fill="rgb(128,128,128)" height="100" width="100" x="0" y="400" /><rect fill="rgb(128,128,128)" height="100" width="100" x="100" y="400" /><rect fill="rgb(128,0,0)" height="100" width="100" x="200" y="400" /><rect fill="rgb(170,255,195)" height="100" width="100" x="300" y="400" /><rect fill="rgb(170,255,195)" height="100" width="100" x="400" y="400" /><rect fill="rgb(250,190,190)" height="100" width="100" x="500" y="400" /><rect fill="rgb(250,190,190)" height="100" width="100" x="600" y="400" /><rect fill="rgb(210,245,60)" height="100" width="100" x="700" y="400" /><rect fill="white" height="100" width="100" x="800" y="400" /><rect fill="white" height="100" width="100" x="900" y="400" /><rect fill="white" height="100" width="100" x="1000" y="400" /><rect fill="white" height="100" width="100" x="1100" y="400" /><rect fill="white" height="100" width="100" x="1200" y="400" /><rect fill="white" height="100" width="100" x="1300" y="400" /><rect fill="white" height="100" width="100" x="1400" y="400" /><rect fill="white" height="100" width="100" x="1500" y="400" /><rect fill="white" height="100" width="100" x="1600" y="400" /><rect fill="white" height="100" width="100" x="1700" y="400" /><rect fill="white" height="100" width="100" x="1800" y="400" /><rect fill="white" height="100" width="100" x="1900" y="400" /><rect fill="rgb(255,250,200)" height="100" width="100" x="0" y="500" /><rect fill="rgb(255,250,200)" height="100" width="100" x="100" y="500" /><rect fill="rgb(128,0,0)" height="100" width="100" x="200" y="500" /><rect fill="rgb(170,255,195)" height="100" width="100" x="300" y="500" /><rect fill="rgb(240,50,230)" height="100" width="100" x="400" y="500" /><rect fill="rgb(240,50,230)" height="100" width="100" x="500" y="500" /><rect fill="rgb(210,245,60)" height="100" width="100" x="600" y="500" /><rect fill="rgb(210,245,60)" height="100" width="100" x="700" y="500" /><rect fill="rgb(60,180,75)" height="100" width="100" x="800" y="500" /><rect fill="rgb(60,180,75)" height="100" width="100" x="900" y="500" /><rect fill="rgb(60,180,75)" height="100" width="100" x="1000" y="500" /><rect fill="rgb(60,180,75)" height="100" width="100" x="1100" y="500" /><rect fill="white" height="100" width="100" x="1200" y="500" /><rect fill="white" height="100" width="100" x="1300" y="500" /><rect fill="white" height="100" width="100" x="1400" y="500" /><rect fill="white" height="100" width="100" x="1500" y="500" /><rect fill="white" height="100" width="100" x="1600" y="500" /><rect fill="white" height="100" width="100" x="1700" y="500" /><rect fill="white" height="100" width="100" x="1800" y="500" /><rect fill="white" height="100" width="100" x="1900" y="500" /><rect fill="rgb(255,250,200)" height="100" width="100" x="0" y="600" /><rect fill="rgb(128,0,0)" height="100" width="100" x="100" y="600" /><rect fill="rgb(128,0,0)" height="100" width="100" x="200" y="600" /><rect fill="rgb(170,255,195)" height="100" width="100" x="300" y="600" /><rect fill="rgb(145,30,180)" height="100" width="100" x="400" y="600" /><rect fill="rgb(240,50,230)" height="100" width="100" x="500" y="600" /><rect fill="rgb(210,245,60)" height="100" width="100" x="600" y="600" /><rect fill="rgb(70,240,240)" height="100" width="100" x="700" y="600" /><rect fill="white" height="100" width="100" x="800" y="600" /><rect fill="white" height="100" width="100" x="900" y="600" /><rect fill="white" height="100" width="100" x="1000" y="600" /><rect fill="white" height="100" width="100" x="1100" y="600" /><rect fill="white" height="100" width="100" x="1200" y="600" /><rect fill="white" height="100" width="100" x="1300" y="600" /><rect fill="white" height="100" width="100" x="1400" y="600" /><rect fill="white" height="100" width="100" x="1500" y="600" /><rect fill="white" height="100" width="100" x="1600" y="600" /><rect fill="white" height="100" width="100" x="1700" y="600" /><rect fill="white" height="100" width="100" x="1800" y="600" /><rect fill="white" height="100" width="100" x="1900" y="600" /><rect fill="rgb(255,250,200)" height="100" width="100" x="0" y="700" /><rect fill="rgb(230,190,255)" height="100" width="100" x="100" y="700" /><rect fill="rgb(230,190,255)" height="100" width="100" x="200" y="700" /><rect fill="rgb(245,130,48)" height="100" width="100" x="300" y="700" /><rect fill="rgb(145,30,180)" height="100" width="100" x="400" y="700" /><rect fill="rgb(240,50,230)" height="100" width="100" x="500" y="700" /><rect fill="rgb(70,240,240)" height="100" width="100" x="600" y="700" /><rect fill="rgb(70,240,240)" height="100" width="100" x="700" y="700" /><rect fill="white" height="100" width="100" x="800" y="700" /><rect fill="white" height="100" width="100" x="900" y="700" /><rect fill="white" height="100" width="100" x="1000" y="700" /><rect fill="white" height="100" width="100" x="1100" y="700" /><rect fill="white" height="100" width="100" x="1200" y="700" /><rect fill="white" height="100" width="100" x="1300" y="700" /><rect fill="white" height="100" width="100" x="1400" y="700" /><rect fill="white" height="100" width="100" x="1500" y="700" /><rect fill="white" height="100" width="100" x="1600" y="700" /><rect fill="white" height="100" width="100" x="1700" y="700" /><rect fill="white" height="100" width="100" x="1800" y="700" /><rect fill="white" height="100" width="100" x="1900" y="700" /><rect fill="rgb(170,110,40)" height="100" width="100" x="0" y="800" /><rect fill="rgb(170,110,40)" height="100" width="100" x="100" y="800" /><rect fill="rgb(230,190,255)" height="100" width="100" x="200" y="800" /><rect fill="rgb(245,130,48)" height="100" width="100" x="300" y="800" /><rect fill="rgb(145,30,180)" height="100" width="100" x="400" y="800" /><rect fill="rgb(255,225,25)" height="100" width="100" x="500" y="800" /><rect fill="rgb(0,130,200)" height="100" width="100" x="600" y="800" /><rect fill="rgb(70,240,240)" height="100" width="100" x="700" y="800" /><rect fill="white" height="100" width="100" x="800" y="800" /><rect fill="white" height="100" width="100" x="900" y="800" /><rect fill="white" height="100" width="100" x="1000" y="800" /><rect fill="white" height="100" width="100" x="1100" y="800" /><rect fill="white" height="100" width="100" x="1200" y="800" /><rect fill="white" height="100" width="100" x="1300" y="800" /><rect fill="white" height="100" width="100" x="1400" y="800" /><rect fill="white" height="100" width="100" x="1500" y="800" /><rect fill="white" height="100" width="100" x="1600" y="800" /><rect fill="white" height="100" width="100" x="1700" y="800" /><rect fill="white" height="100" width="100" x="1800" y="800" /><rect fill="white" height="100" width="100" x="1900" y="800" /><rect fill="rgb(170,110,40)" height="100" width="100" x="0" y="900" /><rect fill="rgb(170,110,40)" height="100" width="100" x="100" y="900" /><rect fill="rgb(230,190,255)" height="100" width="100" x="200" y="900" /><rect fill="rgb(245,130,48)" height="100" width="100" x="300" y="900" /><rect fill="rgb(145,30,180)" height="100" width="100" x="400" y="900" /><rect fill="rgb(255,225,25)" height="100" width="100" x="500" y="900" /><rect fill="rgb(0,130,200)" height="100" width="100" x="600" y="900" /><rect fill="rgb(0,130,200)" height="100" width="100" x="700" y="900" /><rect fill="white" height="100" width="100" x="800" y="900" /><rect fill="white" height="100" width="100" x="900" y="900" /><rect fill="white" height="100" width="100" x="1000" y="900" /><rect fill="white" height="100" width="100" x="1100" y="900" /><rect fill="white" height="100" width="100" x="1200" y="900" /><rect fill="white" height="100" width="100" x="1300" y="900" /><rect fill="white" height="100" width="100" x="1400" y="900" /><rect fill="white" height="100" width="100" x="1500" y="900" /><rect fill="white" height="100" width="100" x="1600" y="900" /><rect fill="white" height="100" width="100" x="1700" y="900" /><rect fill="white" height="100" width="100" x="1800" y="900" /><rect fill="white" height="100" width="100" x="1900" y="900" /><rect fill="rgb(255,215,180)" height="100" width="100" x="0" y="1000" /><rect fill="rgb(255,215,180)" height="100" width="100" x="100" y="1000" /><rect fill="rgb(0,0,128)" height="100" width="100" x="200" y="1000" /><rect fill="rgb(245,130,48)" height="100" width="100" x="300" y="1000" /><rect fill="rgb(128,128,128)" height="100" width="100" x="400" y="1000" /><rect fill="rgb(255,225,25)" height="100" width="100" x="500" y="1000" /><rect fill="rgb(60,180,75)" height="100" width="100" x="600" y="1000" /><rect fill="rgb(0,130,200)" height="100" width="100" x="700" y="1000" /><rect fill="rgb(255,225,25)" height="100" width="100" x="800" y="1000" /><rect fill="rgb(255,225,25)" height="100" width="100" x="900" y="1000" /><rect fill="rgb(255,225,25)" height="100" width="100" x="1000" y="1000" /><rect fill="rgb(255,225,25)" height="100" width="100" x="1100" y="1000" /><rect fill="white" height="100" width="100" x="1200" y="1000" /><rect fill="white" height="100" width="100" x="1300" y="1000" /><rect fill="white" height="100" width="100" x="1400" y="1000" /><rect fill="white" height="100" width="100" x="1500" y="1000" /><rect fill="white" height="100" width="100" x="1600" y="1000" /><rect fill="white" height="100" width="100" x="1700" y="1000" /><rect fill="white" height="100" width="100" x="1800" y="1000" /><rect fill="white" height="100" width="100" x="1900" y="1000" /><rect fill="rgb(255,215,180)" height="100" width="100" x="0" y="1100" /><rect fill="rgb(0,0,128)" height="100" width="100" x="100" y="1100" /><rect fill="rgb(0,0,128)" height="100" width="100" x="200" y="1100" /><rect fill="rgb(0,0,128)" height="100" width="100" x="300" y="1100" /><rect fill="rgb(128,128,128)" height="100" width="100" x="400" y="1100" /><rect fill="rgb(255,225,25)" height="100" width="100" x="500" y="1100" /><rect fill="rgb(60,180,75)" height="100" width="100" x="600" y="1100" /><rect fill="rgb(255,250,200)" height="100" width="100" x="700" y="1100" /><rect fill="white" height="100" width="100" x="800" y="1100" /><rect fill="white" height="100" width="100" x="900" y="1100" /><rect fill="white" height="100" width="100" x="1000" y="1100" /><rect fill="white" height="100" width="100" x="1100" y="1100" /><rect fill="white" height="100" width="100" x="1200" y="1100" /><rect fill="white" height="100" width="100" x="1300" y="1100" /><rect fill="white" height="100" width="100" x="1400" y="1100" /><rect fill="white" height="100" width="100" x="1500" y="1100" /><rect fill="white" height="100" width="100" x="1600" y="1100" /><rect fill="white" height="100" width="100" x="1700" y="1100" /><rect fill="white" height="100" width="100" x="1800" y="1100" /><rect fill="white" height="100" width="100" x="1900" y="1100" /><rect fill="rgb(255,215,180)" height="100" width="100" x="0" y="1200" /><rect fill="rgb(128,128,0)" height="100" width="100" x="100" y="1200" /><rect fill="rgb(128,128,0)" height="100" width="100" x="200" y="1200" /><rect fill="rgb(128,128,128)" height="100" width="100" x="300" y="1200" /><rect fill="rgb(128,128,128)" height="100" width="100" x="400" y="1200" /><rect fill="rgb(60,180,75)" height="100" width="100" x="500" y="1200" /><rect fill="rgb(60,180,75)" height="100" width="100" x="600" y="1200" /><rect fill="rgb(255,250,200)" height="100" width="100" x="700" y="1200" /><rect fill="white" height="100" width="100" x="800" y="1200" /><rect fill="white" height="100" width="100" x="900" y="1200" /><rect fill="white" height="100" width="100" x="1000" y="1200" /><rect fill="white" height="100" width="100" x="1100" y="1200" /><rect fill="white" height="100" width="100" x="1200" y="1200" /><rect fill="white" height="100" width="100" x="1300" y="1200" /><rect fill="white" height="100" width="100" x="1400" y="1200" /><rect fill="white" height="100" width="100" x="1500" y="1200" /><rect fill="white" height="100" width="100" x="1600" y="1200" /><rect fill="white" height="100" width="100" x="1700" y="1200" /><rect fill="white" height="100" width="100" x="1800" y="1200" /><rect fill="white" height="100" width="100" x="1900" y="1200" /><rect fill="rgb(170,110,40)" height="100" width="100" x="0" y="1300" /><rect fill="rgb(170,110,40)" height="100" width="100" x="100" y="1300" /><rect fill="rgb(128,128,0)" height="100" width="100" x="200" y="1300" /><rect fill="rgb(170,255,195)" height="100" width="100" x="300" y="1300" /><rect fill="rgb(128,0,0)" height="100" width="100" x="400" y="1300" /><rect fill="rgb(128,0,0)" height="100" width="100" x="500" y="1300" /><rect fill="rgb(128,0,0)" height="100" width="100" x="600" y="1300" /><rect fill="rgb(255,250,200)" height="100" width="100" x="700" y="1300" /><rect fill="white" height="100" width="100" x="800" y="1300" /><rect fill="white" height="100" width="100" x="900" y="1300" /><rect fill="white" height="100" width="100" x="1000" y="1300" /><rect fill="white" height="100" width="100" x="1100" y="1300" /><rect fill="white" height="100" width="100" x="1200" y="1300" /><rect fill="white" height="100" width="100" x="1300" y="1300" /><rect fill="white" height="100" width="100" x="1400" y="1300" /><rect fill="white" height="100" width="100" x="1500" y="1300" /><rect fill="white" height="100" width="100" x="1600" y="1300" /><rect fill="white" height="100" width="100" x="1700" y="1300" /><rect fill="white" height="100" width="100" x="1800" y="1300" /><rect fill="white" height="100" width="100" x="1900" y="1300" /><rect fill="rgb(170,110,40)" height="100" width="100" x="0" y="1400" /><rect fill="rgb(170,110,40)" height="100" width="100" x="100" y="1400" /><rect fill="rgb(128,128,0)" height="100" width="100" x="200" y="1400" /><rect fill="rgb(170,255,195)" height="100" width="100" x="300" y="1400" /><rect fill="rgb(170,255,195)" height="100" width="100" x="400" y="1400" /><rect fill="rgb(170,255,195)" height="100" width="100" x="500" y="1400" /><rect fill="rgb(128,0,0)" height="100" width="100" x="600" y="1400" /><rect fill="rgb(255,250,200)" height="100" width="100" x="700" y="1400" /><rect fill="white" height="100" width="100" x="800" y="1400" /><rect fill="white" height="100" width="100" x="900" y="1400" /><rect fill="white" height="100" width="100" x="1000" y="1400" /><rect fill="white" height="100" width="100" x="1100" y="1400" /><rect fill="white" height="100" width="100" x="1200" y="1400" /><rect fill="white" height="100" width="100" x="1300" y="1400" /><rect fill="white" height="100" width="100" x="1400" y="1400" /><rect fill="white" height="100" width="100" x="1500" y="1400" /><rect fill="white" height="100" width="100" x="1600" y="1400" /><rect fill="white" height="100" width="100" x="1700" y="1400" /><rect fill="white" height="100" width="100" x="1800" y="1400" /><rect fill="white" height="100" width="100" x="1900" y="1400" /></svg>